inDegrees=no
num_controls=7
num_derivatives=13
num_iterations=33
num_multipliers=7
num_parameters=0
num_slacks=7
num_states=26
objective=0.427975
objective_accelerations=0.055578
objective_balance=0.001126
objective_effort=0.014900
objective_height=0.350315
objective_ligament=0.006056
solver_duration=565.707668
status=Solve_Succeeded
success=true
DataType=double
version=3
OpenSimVersion=4.5
endheader
time	/jointset/ground_pelvis/pelvis_tilt/value	/jointset/ground_pelvis/pelvis_tx/value	/jointset/ground_pelvis/pelvis_ty/value	/jointset/hip_l/hip_flexion_l/value	/jointset/hip_l/hip_adduction_l/value	/jointset/hip_l/hip_rotation_l/value	/jointset/back/lumbar_extension/value	/jointset/patellofemoral_l/patellar_flexion_l/value	/jointset/knee_l/knee_flexion_l/value	/jointset/knee_l/knee_adduction_l/value	/jointset/knee_l/knee_rotation_l/value	/jointset/ankle_l/ankle_angle_l/value	/jointset/subtalar_l/subtalar_angle_l/value	/jointset/ground_pelvis/pelvis_tilt/speed	/jointset/ground_pelvis/pelvis_tx/speed	/jointset/ground_pelvis/pelvis_ty/speed	/jointset/hip_l/hip_flexion_l/speed	/jointset/hip_l/hip_adduction_l/speed	/jointset/hip_l/hip_rotation_l/speed	/jointset/back/lumbar_extension/speed	/jointset/patellofemoral_l/patellar_flexion_l/speed	/jointset/knee_l/knee_flexion_l/speed	/jointset/knee_l/knee_adduction_l/speed	/jointset/knee_l/knee_rotation_l/speed	/jointset/ankle_l/ankle_angle_l/speed	/jointset/subtalar_l/subtalar_angle_l/speed	/forceset/tau_hip_flexion_l	/forceset/tau_hip_adduction_l	/forceset/tau_hip_rotation_l	/forceset/tau_knee_flexion_l	/forceset/tau_ankle_angle_l	/forceset/tau_subtalar_angle_l	/forceset/tau_lumbar_extension	lambda_cid13_p0	lambda_cid13_p1	lambda_cid13_p2	lambda_cid13_p3	lambda_cid13_p4	lambda_cid13_p5	lambda_cid14_p0	/jointset/ground_pelvis/pelvis_tilt/accel	/jointset/ground_pelvis/pelvis_tx/accel	/jointset/ground_pelvis/pelvis_ty/accel	/jointset/hip_l/hip_flexion_l/accel	/jointset/hip_l/hip_adduction_l/accel	/jointset/hip_l/hip_rotation_l/accel	/jointset/back/lumbar_extension/accel	/jointset/patellofemoral_l/patellar_flexion_l/accel	/jointset/knee_l/knee_flexion_l/accel	/jointset/knee_l/knee_adduction_l/accel	/jointset/knee_l/knee_rotation_l/accel	/jointset/ankle_l/ankle_angle_l/accel	/jointset/subtalar_l/subtalar_angle_l/accel	gamma_cid13_p0	gamma_cid13_p1	gamma_cid13_p2	gamma_cid13_p3	gamma_cid13_p4	gamma_cid13_p5	gamma_cid14_p0
0.5	-0.1987693504756777	0.03846325550411526	0.7774790781570262	0.9517854124790686	-0.3661527182790251	-0.003001931854802928	-0.4019272265988368	0.9461248825362387	0.9461248825362257	-0.04191957955683074	-0.1744928433612487	0.3201046808660412	0.1625081795676142	-0.7040181088786283	-0.1617275197116816	-0.5004124704809052	2.289307675856633	0.03231897778126145	0.5474047301239295	-0.3060188507436973	1.955376099629467	1.955376099629481	0.280110151860519	0.001919014182407783	0.5325424348546446	0.2670662723701753	-0.1002066326408024	0.08244165454474427	-0.0004028678806973529	-0.1969209699414651	0.005895553580568976	-0.02120160913095209	0.1149252460317979	-25.89107950927474	18.64888544069246	-8.859910624767394	2.311161203585446	-441.9747954112034	-22.00179545310525	-5.353032528627984	0.2788735673922751	0.3357141520317972	-0.4275677878024314	-1.158953989261264	0.1571466122065513	-0.8096849319008386	1.497663726662958	-1.647469947864066	-1.647469947864066	-0.1147808842503883	0.00220393736781791	-0.923062581117073	0.1414309312866025	-4.476962271576526e-07	-9.358020064691661e-07	5.696485116286812e-06	2.157975645381224e-07	-1.182541000064432e-06	-1.632055813384493e-06	-7.774940111765372e-07
0.51	-0.2057935936789836	0.03686309964051805	0.772454864656047	0.9746155752133611	-0.3658242555191032	0.002436000782763386	-0.4049133230684295	0.9655925391295292	0.9655925391295734	-0.0391326669042131	-0.1744741945406287	0.3253823510815556	0.1651815019843943	-0.700732243486955	-0.1582783535085449	-0.5043113767348009	2.276400034690116	0.03336816120723698	0.5401028096977105	-0.2911687756833521	1.937870270537988	1.937870270537983	0.2772893035787547	0.001785241783735637	0.5229209189417975	0.2675494918384624	-0.104590105329592	0.0836391023905966	-0.001024108795001473	-0.1994994579741939	0.004784016149695186	-0.0205548080827579	0.1183295148844065	-26.4387993130346	18.66191174180991	-9.088186994618923	2.345067658397263	-445.2260360845844	-21.98438444439017	-4.711052177712603	0.3681559538024022	0.3533607329333879	-0.3534560272107568	-1.405447663931096	0.0771718762808698	-0.7030184102417339	1.483429519325818	-1.844729738199875	-1.844729738202622	-0.3632346932754079	-0.02394792149367923	-0.9923413347268445	-0.006100266767324645	-4.256776924451035e-07	-5.313017021750944e-07	5.659922618906243e-06	2.643511382744946e-07	-1.137932345597007e-06	-1.267763800901273e-06	-7.450456125237558e-07
0.52	-0.212782035642634	0.03529820401464728	0.7673951812959239	0.9973069058392851	-0.3654856273912329	0.007798399653635026	-0.4077499687626924	0.9848766193622561	0.9848766193622658	-0.03637346231338735	-0.1744574394624632	0.3305616770902592	0.1678580830515832	-0.6968578609453623	-0.1546754721663958	-0.5075064423096713	2.26154125418023	0.03435205137269994	0.5322979767811293	-0.2761286956787553	1.918660827510122	1.918660827510099	0.2745685395715658	0.001540265664673667	0.5128735934946205	0.2677180024520617	-0.1089735780181387	0.08483655023654345	-0.00164534971123448	-0.2020779460068745	0.003672478718848891	-0.01990800703438574	0.1217337837372325	-26.98183258886433	18.66396124924828	-9.30310957725705	2.339926389320295	-448.4060569813815	-22.07580296937975	-4.116819447728863	0.3965769973762211	0.3664571798342018	-0.2867996519974323	-1.549181857934931	0.1440879601038649	-0.9102674299733576	1.535664715513283	-1.988192735141096	-1.988192735141096	-0.09476402933531736	-0.02003680671031917	-1.008224487983124	0.07848916034890135	-4.040026807551971e-07	-1.248525343465813e-07	5.640567130406046e-06	3.140173735038073e-07	-1.094053978572106e-06	-8.951449034389336e-07	-7.155852136314052e-07
0.53	-0.2197289422628328	0.03377001698775146	0.7623070711783519	1.019840301180557	-0.3651374691528868	0.01308230794363885	-0.4104354600965101	1.003960404533568	1.003960404533589	-0.03364251152665732	-0.1744426475708659	0.3356384826695729	0.1705346947029902	-0.6924249235210467	-0.1509444335431335	-0.5099939013200118	2.244822467237593	0.03525378807639121	0.5245282294093744	-0.260973564297368	1.897825042792157	1.897825042792159	0.2715047956107067	0.00142896114973261	0.5024149406506142	0.2675187009038227	-0.1132234805337273	0.08578497775928526	-0.002138659019507418	-0.2049185808204235	0.002689738231161473	-0.01941728130769753	0.1249841969230322	-27.50805781347379	18.74645839204017	-9.548687468355105	2.406857820676987	-451.6677055636209	-22.08467373108868	-3.569420157922419	0.4814106554040269	0.3791201748423429	-0.2116812442633984	-1.780574122554284	0.05847405468281607	-0.7042967588314324	1.504838367451998	-2.171805911817153	-2.171805911813478	-0.4296581157597137	-0.003978186693572797	-1.075579585366362	-0.08266930258536812	-3.815267912275716e-07	2.138579481297414e-07	5.585929777743672e-06	3.52313915045729e-07	-1.041846003015792e-06	-5.393366771816805e-07	-6.895593682951984e-07
0.54	-0.2266285678007094	0.03227967894134167	0.7571976940269353	1.042197039250389	-0.3647812420416746	0.01828972508632459	-0.4129695199129094	1.022827724943372	1.022827724943371	-0.03094569388694136	-0.1744284289069211	0.340608522939891	0.1732066074408792	-0.6874016444789113	-0.1471056760691868	-0.511759849078669	2.22620979988992	0.03596582594731468	0.5169997473154236	-0.245842392195928	1.875367875206486	1.875367875206513	0.2677419101979108	0.001425620122464604	0.4915205316963313	0.2667782197485757	-0.1174733830491213	0.08673340528205789	-0.002631968328685895	-0.2077592156339491	0.001706997743475248	-0.0189265555809495	0.1282346101090138	-28.03090047924922	18.81905113945219	-9.782047168773129	2.43681463864604	-454.8767629022656	-22.19870806096806	-3.067699564298024	0.5146453209402035	0.388000949971048	-0.1424974016608168	-1.927957938941929	0.1061481935501779	-0.8620143744125572	1.53087285952381	-2.31246930868205	-2.312469308682054	-0.2345923197227563	0.001555890824087104	-1.095375710038462	-0.02974676105279011	-3.581648240922569e-07	4.776235021312994e-07	5.492257171114633e-06	3.780312210186224e-07	-9.804222903608923e-07	-2.02127491406651e-07	-6.673334545530233e-07
0.55	-0.2334752361534195	0.03082820853313085	0.7520742536922526	1.064358673087215	-0.3644184357709861	0.02342238133757101	-0.4153523471779355	1.041462775770442	1.041462775770447	-0.02828881540640263	-0.1744139119300885	0.3454677079020257	0.1758690024767858	-0.6818407689995085	-0.1431757045854984	-0.512805417459657	2.205819598963786	0.0365854623094637	0.5094591231279745	-0.2307395071703813	1.85139239476116	1.85139239476118	0.2636391341082776	0.00143746159199118	0.4802601826636441	0.2656420123184779	-0.1216301104873466	0.08748563880405681	-0.003007735591510151	-0.2107933351510797	0.0008508491526513071	-0.0185736543971407	0.1313765695101539	-28.53293662725484	18.96156487215458	-10.04221345971633	2.501347863571101	-458.1361425845785	-22.24281226623619	-2.610246821389683	0.5904807226432461	0.3974788074018821	-0.0673558803361831	-2.139194115440803	0.03750949512322013	-0.7115308080078959	1.49752936980108	-2.477440687211506	-2.477440687212564	-0.4972388722110373	-0.003985031820812227	-1.149789789101047	-0.1651215972508081	-3.330961750474282e-07	7.093961395906561e-07	5.351171333353006e-06	3.971218740024661e-07	-9.161874405835408e-07	1.077762347659464e-07	-6.406594687810505e-07
